<!DOCTYPE svg PUBLIC "-//W3C//DTD SVG 20010904//EN" "http://www.w3.org/TR/2001/REC-SVG-20010904/DTD/svg10.dtd">
<svg version="1.0" xmlns="http://www.w3.org/2000/svg" width="1200px" height="1200px" viewBox="1800 1300 8500 8500" preserveAspectRatio="xMidYMid meet">
<g id="layer101" fill="#231f1f" stroke="none">
 <path d="M0 6000 l0 -6000 6000 0 6000 0 0 6000 0 6000 -6000 0 -6000 0 0 -6000z"/>
 </g>
<g id="layer102" fill="#603fa8" stroke="none">
 <path d="M0 6000 l0 -6000 6000 0 6000 0 0 6000 0 6000 -6000 0 -6000 0 0 -6000z m5395 -834 c203 -31 428 -114 568 -210 l37 -26 53 34 c316 202 755 269 1162 176 201 -45 455 -152 610 -256 253 -169 440 -393 550 -657 42 -104 44 -98 -60 -165 -205 -132 -450 -209 -718 -227 -74 -5 -97 -10 -93 -20 57 -150 87 -311 93 -501 6 -173 -7 -302 -40 -401 l-12 -38 -85 -3 c-255 -9 -586 104 -830 284 l-58 42 -32 -101 c-73 -231 -192 -429 -355 -593 -55 -55 -119 -113 -143 -129 l-42 -28 -42 29 c-23 16 -81 67 -129 114 -174 171 -297 377 -374 623 l-27 85 -58 -43 c-232 -177 -541 -285 -817 -285 -107 0 -101 -6 -129 120 -15 68 -19 125 -19 280 0 210 17 325 71 484 13 39 24 72 24 73 0 0 -44 4 -97 8 -273 18 -510 94 -719 230 l-86 56 5 37 c9 55 106 244 179 347 80 115 227 261 348 348 208 148 513 270 785 312 109 17 370 18 480 1z"/>
 <path d="M4995 5104 c-90 -10 -247 -46 -364 -84 -351 -114 -633 -320 -816 -595 -51 -77 -135 -240 -135 -263 0 -29 224 -144 370 -190 213 -67 480 -84 710 -43 134 23 352 92 477 151 229 107 463 306 596 506 59 88 134 231 125 239 -2 1 -97 -28 -213 -66 -561 -184 -564 -184 -583 -166 -13 13 -14 21 -6 35 12 19 45 31 468 168 336 109 319 94 186 163 -87 46 -247 101 -360 126 -74 16 -367 28 -455 19z"/>
 <path d="M6633 5099 c-171 -26 -359 -90 -496 -169 l-76 -43 227 -74 c565 -185 517 -166 517 -199 0 -21 -5 -30 -20 -32 -11 -1 -183 51 -382 117 l-363 119 52 -101 c184 -358 513 -613 957 -742 172 -49 291 -67 456 -67 219 0 395 33 573 110 109 47 231 118 239 138 7 18 -75 189 -129 269 -192 282 -464 480 -819 595 -198 64 -299 82 -499 85 -96 2 -203 0 -237 -6z"/>
 <path d="M5950 4638 c-82 -148 -232 -323 -373 -433 -30 -24 -41 -42 -52 -86 -24 -92 -53 -276 -65 -410 -33 -391 98 -804 348 -1092 60 -70 176 -177 192 -177 15 0 133 106 182 163 208 242 323 516 359 859 17 164 -3 371 -58 602 -24 103 -28 112 -67 145 -170 148 -275 271 -362 425 -27 47 -51 86 -54 86 -3 0 -25 -37 -50 -82z"/>
 <path d="M5405 4088 c-70 -46 -259 -130 -381 -167 -157 -48 -261 -70 -365 -78 l-77 -6 -22 -59 c-35 -96 -68 -237 -81 -349 -13 -111 -7 -320 11 -399 6 -25 12 -55 15 -67 5 -20 12 -23 58 -23 231 0 542 110 755 266 93 68 94 69 88 104 -3 19 -11 86 -18 148 -14 135 -1 334 35 530 13 67 21 122 18 121 -3 0 -19 -10 -36 -21z"/>
 <path d="M6555 4083 c60 -235 78 -485 51 -693 -10 -72 -11 -109 -4 -117 18 -22 141 -109 213 -151 164 -94 393 -165 573 -178 l100 -7 11 41 c57 211 32 550 -59 800 l-22 59 -81 7 c-211 16 -550 126 -729 236 -26 17 -51 30 -54 30 -3 0 -3 -12 1 -27z"/>
 </g>
<g id="layer103" fill="#87ab7b" stroke="none">
 <path d="M0 6000 l0 -6000 6000 0 6000 0 0 6000 0 6000 -6000 0 -6000 0 0 -6000z m4051 915 c207 -36 393 -140 589 -328 66 -63 86 -77 113 -77 17 0 124 -13 235 -29 139 -19 205 -24 207 -17 2 6 6 54 9 106 7 123 32 262 56 318 16 35 24 43 42 40 28 -4 28 -26 4 -113 -19 -69 -49 -300 -44 -342 3 -27 5 -28 93 -40 143 -18 136 -19 129 26 -5 33 -3 41 17 55 13 9 34 16 46 16 20 0 22 4 16 33 -3 17 -10 40 -14 49 -13 24 0 48 26 48 24 0 36 -21 53 -90 8 -33 11 -35 54 -38 56 -4 61 5 48 85 -27 165 5 255 102 281 69 19 159 -21 216 -95 l25 -34 28 50 c66 116 226 122 321 12 30 -35 41 -41 74 -41 107 0 173 -53 242 -193 24 -48 48 -87 54 -87 8 0 9 52 5 176 -7 195 -3 214 43 214 34 0 57 -28 110 -130 67 -131 117 -205 144 -215 21 -7 29 -6 36 5 5 8 6 77 3 156 -7 172 -3 194 37 194 35 0 46 -15 125 -167 72 -139 117 -195 154 -191 l26 3 -3 95 c-4 133 4 174 40 215 26 30 36 35 74 35 58 0 109 -27 162 -84 26 -28 42 -39 42 -30 0 57 90 122 151 110 41 -7 95 -44 120 -82 l17 -27 20 39 c50 97 169 98 258 2 39 -42 64 -79 99 -146 22 -42 25 -55 15 -67 -23 -28 -44 -16 -75 42 -65 125 -137 191 -196 178 -37 -8 -57 -45 -73 -134 -11 -59 -15 -66 -35 -66 -19 0 -26 9 -40 55 -22 69 -46 107 -82 126 -40 20 -66 17 -94 -11 -20 -19 -25 -34 -25 -73 0 -60 39 -143 82 -173 44 -32 108 -36 157 -11 32 17 42 18 56 8 46 -33 -32 -91 -120 -90 -98 1 -170 59 -247 196 -84 149 -182 217 -224 154 -12 -19 -15 -48 -14 -123 3 -150 2 -152 -29 -184 -35 -35 -72 -37 -119 -9 -49 30 -74 63 -137 178 -31 56 -58 102 -60 102 -1 0 0 -49 3 -108 4 -89 2 -114 -12 -140 -31 -60 -86 -66 -144 -17 -31 26 -60 68 -136 200 l-46 80 3 -156 c2 -142 0 -159 -17 -178 -49 -54 -111 -11 -179 124 -49 98 -65 116 -116 134 -66 22 -71 18 -71 -51 0 -35 -5 -81 -11 -102 -27 -98 -135 -132 -174 -55 -35 66 -7 171 60 227 37 30 38 31 21 56 -42 65 -143 74 -199 18 -24 -25 -31 -41 -35 -85 -6 -70 17 -120 75 -160 44 -32 55 -60 27 -71 -42 -16 -122 61 -192 184 -88 157 -215 208 -258 104 -13 -31 -13 -50 -3 -128 20 -156 -1 -196 -106 -196 -42 0 -45 -2 -45 -25 0 -37 -25 -92 -48 -104 -14 -7 -24 -6 -38 3 -10 7 -66 19 -124 25 -58 7 -120 14 -137 18 l-33 5 0 -203 c1 -224 21 -504 39 -522 17 -17 13 -55 -6 -66 -20 -11 -53 3 -53 22 0 34 -399 646 -502 771 -40 49 -62 67 -88 73 -19 4 -136 8 -260 8 -179 0 -241 -4 -305 -18 -155 -34 -236 -94 -237 -175 0 -47 13 -75 59 -123 64 -67 16 -111 -49 -46 -68 68 -92 157 -64 232 42 110 187 176 422 194 102 7 330 5 374 -4 21 -4 15 4 -30 46 -142 131 -312 230 -465 269 -110 29 -287 29 -366 2 -70 -25 -112 -46 -128 -66 -15 -18 -56 -21 -66 -6 -26 43 110 128 240 149 80 14 186 12 276 -4z m1434 -1763 c162 -36 340 -109 479 -195 l39 -24 36 24 c100 69 298 152 445 188 170 41 437 47 626 15 593 -100 1069 -452 1266 -934 41 -102 43 -98 -56 -161 -209 -136 -448 -213 -713 -230 -95 -7 -107 -10 -101 -24 53 -122 94 -360 94 -546 0 -187 -32 -375 -68 -394 -22 -12 -222 3 -317 23 -190 40 -411 136 -561 244 l-81 59 -32 -101 c-89 -277 -261 -533 -468 -698 l-65 -51 -36 19 c-54 28 -238 216 -305 311 -79 112 -156 265 -202 405 l-38 116 -50 -40 c-59 -46 -213 -138 -283 -169 -83 -36 -210 -77 -291 -93 -109 -22 -311 -38 -334 -25 -61 32 -90 410 -50 649 17 100 53 240 75 291 6 14 -6 17 -96 23 -269 18 -525 102 -728 238 -50 34 -66 51 -68 71 -5 38 90 233 170 349 79 116 234 272 358 360 217 154 519 273 805 318 105 16 447 5 550 -18z"/>
 <path d="M6381 6674 c-44 -56 -54 -139 -16 -139 26 0 45 41 52 110 6 62 -4 70 -36 29z"/>
 <path d="M5552 6429 c8 -23 13 -27 19 -17 15 24 10 48 -10 48 -18 0 -19 -3 -9 -31z"/>
 <path d="M4802 6409 c66 -88 214 -305 298 -438 52 -82 99 -150 104 -150 4 -1 5 6 2 15 -3 9 -9 137 -13 284 l-6 269 -51 6 c-28 4 -112 15 -186 26 -182 26 -177 26 -148 -12z"/>
 <path d="M4974 5100 c-263 -33 -553 -141 -773 -287 -117 -78 -310 -272 -386 -387 -54 -83 -135 -241 -135 -264 0 -27 228 -145 359 -186 165 -52 266 -67 456 -66 170 0 290 17 455 65 214 63 342 122 515 239 116 78 285 247 357 356 55 83 144 248 137 254 -2 2 -62 -16 -134 -40 -455 -149 -637 -205 -650 -200 -22 8 -29 34 -15 51 9 11 251 94 714 242 57 19 57 20 -63 82 -98 50 -227 95 -349 122 -111 23 -371 33 -488 19z"/>
 <path d="M6615 5094 c-114 -18 -245 -55 -349 -100 -91 -38 -220 -114 -196 -114 8 0 177 -53 375 -118 l360 -118 0 -29 c0 -20 -6 -31 -17 -33 -14 -3 -500 149 -695 218 l-52 18 41 -82 c204 -406 590 -684 1105 -796 251 -54 555 -39 789 40 143 49 344 156 344 184 0 22 -80 179 -134 260 -182 277 -462 481 -817 596 -137 44 -222 64 -349 79 -113 15 -295 12 -405 -5z"/>
 <path d="M5956 4645 c-22 -41 -67 -112 -102 -157 -60 -80 -214 -238 -282 -288 -27 -20 -36 -37 -48 -85 -27 -115 -54 -291 -63 -410 -30 -397 104 -815 350 -1090 65 -73 175 -175 188 -175 16 0 129 103 189 171 197 226 320 523 353 853 16 161 -5 381 -58 601 -23 99 -29 112 -62 140 -160 135 -292 290 -373 437 -24 42 -45 77 -48 78 -3 0 -23 -34 -44 -75z"/>
 <path d="M5325 4045 c-190 -101 -472 -187 -662 -202 l-82 -6 -31 -92 c-71 -212 -96 -462 -66 -663 9 -62 20 -120 23 -129 5 -13 18 -15 92 -10 250 19 479 99 680 237 144 101 133 80 116 206 -8 60 -15 146 -15 192 0 104 25 329 49 445 10 48 18 87 17 86 -1 0 -55 -29 -121 -64z"/>
 <path d="M6555 4088 c64 -277 80 -497 50 -703 -16 -118 -22 -107 105 -194 211 -145 444 -229 686 -247 104 -8 92 -17 116 91 7 36 13 127 13 225 0 189 -17 302 -71 471 l-34 106 -83 6 c-218 17 -557 128 -739 243 -46 30 -50 30 -43 2z"/>
 </g>
<g id="layer104" fill="#95b48c" stroke="none">
 <path d="M0 6000 l0 -6000 6000 0 6000 0 0 6000 0 6000 -6000 0 -6000 0 0 -6000z m8755 2135 c17 -9 37 -26 44 -38 8 -15 13 -106 15 -272 2 -169 7 -261 16 -283 16 -44 4 -54 -25 -20 -22 26 -23 26 -40 8 -20 -22 -89 -39 -133 -32 -20 3 -45 19 -70 46 -32 35 -41 55 -52 110 -15 80 -7 192 16 239 22 43 53 67 89 67 37 0 102 -32 132 -66 12 -13 24 -24 26 -24 2 0 7 41 10 91 8 104 1 124 -48 145 -46 19 -75 18 -131 -6 -50 -22 -65 -19 -48 7 23 37 143 54 199 28z m-4306 -184 c46 -24 68 -48 54 -62 -6 -6 -19 -1 -38 15 -42 36 -80 40 -128 14 -38 -22 -66 -58 -81 -105 -6 -18 0 -23 41 -37 26 -9 79 -22 117 -28 63 -12 70 -16 88 -48 37 -68 1 -156 -78 -192 -69 -30 -117 -9 -172 77 -24 37 -26 49 -27 145 0 117 9 142 67 196 52 50 95 56 157 25z m1735 -2 c14 -11 26 -27 26 -35 0 -18 -5 -18 -35 2 -36 23 -67 15 -77 -21 -4 -16 -4 -88 2 -160 28 -370 29 -415 5 -415 -12 0 -15 15 -15 73 -1 39 -2 92 -4 117 -5 63 -18 234 -18 240 -3 116 4 170 23 194 25 31 57 33 93 5z m-2914 -139 l0 -138 33 -10 c17 -6 75 -13 127 -16 52 -3 105 -8 118 -12 l22 -6 0 166 c0 104 4 166 10 166 6 0 10 -112 10 -315 0 -203 -4 -315 -10 -315 -6 0 -10 50 -10 130 0 113 -2 130 -17 139 -10 5 -61 12 -113 16 -52 3 -112 10 -132 15 l-38 8 0 -154 c0 -130 -2 -154 -15 -154 -13 0 -15 41 -15 308 0 170 3 312 6 315 18 18 24 -17 24 -143z m2040 130 c21 -11 43 -28 48 -37 9 -14 12 -11 26 20 18 44 42 51 31 10 -4 -16 -7 -96 -6 -179 3 -216 -20 -263 -124 -252 -51 6 -132 55 -116 71 10 10 20 7 66 -22 37 -24 67 -26 104 -6 32 16 41 39 41 110 l0 50 -78 0 c-70 0 -83 3 -113 27 -66 50 -72 145 -13 198 41 36 78 38 134 10z m1614 -41 c-4 -192 -13 -381 -18 -386 -3 -4 -9 -3 -13 1 -9 9 -6 423 3 438 15 24 29 -2 28 -53z m941 10 c2 -19 4 -98 5 -176 2 -170 -8 -202 -72 -228 -64 -25 -134 -2 -164 56 -16 32 -36 39 -33 12 3 -39 -2 -63 -14 -63 -10 0 -13 49 -15 220 -2 192 -1 220 13 220 11 0 15 -13 16 -57 5 -189 7 -221 22 -253 35 -80 93 -124 151 -113 22 5 33 16 49 52 23 52 26 123 14 269 -4 51 -5 98 -1 103 10 17 26 -5 29 -42z m-951 -515 c20 -8 21 -40 2 -47 -19 -7 -40 18 -32 38 6 17 8 17 30 9z m-2863 -479 c207 -36 393 -140 589 -328 66 -63 86 -77 113 -77 17 0 124 -13 235 -29 139 -19 205 -24 207 -17 2 6 6 54 9 106 7 123 32 262 56 318 16 35 24 43 42 40 28 -4 28 -26 4 -113 -19 -69 -49 -300 -44 -342 3 -27 5 -28 93 -40 143 -18 136 -19 129 26 -5 33 -3 41 17 55 13 9 34 16 46 16 20 0 22 4 16 33 -3 17 -10 40 -14 49 -13 24 0 48 26 48 24 0 36 -21 53 -90 8 -33 11 -35 54 -38 56 -4 61 5 48 85 -27 165 5 255 102 281 69 19 159 -21 216 -95 l25 -34 28 50 c66 116 226 122 321 12 30 -35 41 -41 74 -41 107 0 173 -53 242 -193 24 -48 48 -87 54 -87 8 0 9 52 5 176 -7 195 -3 214 43 214 34 0 57 -28 110 -130 67 -131 117 -205 144 -215 21 -7 29 -6 36 5 5 8 6 77 3 156 -7 172 -3 194 37 194 35 0 46 -15 125 -167 72 -139 117 -195 154 -191 l26 3 -3 95 c-4 133 4 174 40 215 26 30 36 35 74 35 58 0 109 -27 162 -84 26 -28 42 -39 42 -30 0 57 90 122 151 110 41 -7 95 -44 120 -82 l17 -27 20 39 c50 97 169 98 258 2 39 -42 64 -79 99 -146 22 -42 25 -55 15 -67 -23 -28 -44 -16 -75 42 -65 125 -137 191 -196 178 -37 -8 -57 -45 -73 -134 -11 -59 -15 -66 -35 -66 -19 0 -26 9 -40 55 -22 69 -46 107 -82 126 -40 20 -66 17 -94 -11 -20 -19 -25 -34 -25 -73 0 -60 39 -143 82 -173 44 -32 108 -36 157 -11 32 17 42 18 56 8 46 -33 -32 -91 -120 -90 -98 1 -170 59 -247 196 -84 149 -182 217 -224 154 -12 -19 -15 -48 -14 -123 3 -150 2 -152 -29 -184 -35 -35 -72 -37 -119 -9 -49 30 -74 63 -137 178 -31 56 -58 102 -60 102 -1 0 0 -49 3 -108 4 -89 2 -114 -12 -140 -31 -60 -86 -66 -144 -17 -31 26 -60 68 -136 200 l-46 80 3 -156 c2 -142 0 -159 -17 -178 -49 -54 -111 -11 -179 124 -49 98 -65 116 -116 134 -66 22 -71 18 -71 -51 0 -35 -5 -81 -11 -102 -27 -98 -135 -132 -174 -55 -35 66 -7 171 60 227 37 30 38 31 21 56 -42 65 -143 74 -199 18 -24 -25 -31 -41 -35 -85 -6 -70 17 -120 75 -160 44 -32 55 -60 27 -71 -42 -16 -122 61 -192 184 -88 157 -215 208 -258 104 -13 -31 -13 -50 -3 -128 20 -156 -1 -196 -106 -196 -42 0 -45 -2 -45 -25 0 -37 -25 -92 -48 -104 -14 -7 -24 -6 -38 3 -10 7 -66 19 -124 25 -58 7 -120 14 -137 18 l-33 5 0 -203 c1 -224 21 -504 39 -522 17 -17 13 -55 -6 -66 -20 -11 -53 3 -53 22 0 34 -399 646 -502 771 -40 49 -62 67 -88 73 -19 4 -136 8 -260 8 -179 0 -241 -4 -305 -18 -155 -34 -236 -94 -237 -175 0 -47 13 -75 59 -123 64 -67 16 -111 -49 -46 -68 68 -92 157 -64 232 42 110 187 176 422 194 102 7 330 5 374 -4 21 -4 15 4 -30 46 -142 131 -312 230 -465 269 -110 29 -287 29 -366 2 -70 -25 -112 -46 -128 -66 -15 -18 -56 -21 -66 -6 -26 43 110 128 240 149 80 14 186 12 276 -4z m1359 -1751 c181 -27 371 -95 514 -182 37 -23 71 -42 76 -42 4 0 45 22 91 48 375 215 816 254 1271 113 480 -149 829 -447 1009 -862 21 -49 39 -96 39 -103 0 -16 -129 -101 -228 -151 -170 -85 -334 -129 -537 -147 l-141 -12 32 -105 c48 -159 65 -280 65 -456 0 -150 -8 -223 -37 -334 -20 -78 -14 -76 -178 -61 -204 20 -371 67 -541 153 -79 40 -249 149 -260 167 -5 7 -23 -35 -46 -103 -67 -206 -186 -410 -323 -556 -69 -73 -196 -181 -213 -181 -24 0 -126 85 -213 177 -98 103 -193 245 -254 375 -43 91 -96 237 -96 264 0 28 -20 21 -111 -42 -158 -110 -343 -191 -519 -228 -117 -25 -327 -41 -345 -26 -37 30 -65 207 -65 408 0 170 17 286 64 443 l32 105 -141 12 c-141 12 -303 48 -412 91 -116 46 -295 145 -332 185 l-22 23 19 49 c192 485 591 811 1167 953 200 49 418 58 635 25z"/>
 <path d="M8589 7915 c-56 -31 -77 -184 -39 -286 28 -75 48 -91 114 -97 48 -4 56 -1 87 26 l34 30 -3 108 -2 108 -38 45 c-40 47 -86 79 -112 80 -8 0 -27 -6 -41 -14z"/>
 <path d="M4250 7720 c0 -56 27 -133 55 -160 48 -45 136 -33 166 22 16 30 19 84 6 102 -6 9 -52 27 -102 40 -49 14 -98 28 -107 31 -15 6 -18 1 -18 -35z"/>
 <path d="M5190 7898 c-22 -36 -26 -88 -10 -118 15 -29 68 -50 124 -50 72 0 77 5 67 70 -8 47 -15 60 -52 92 -58 50 -101 52 -129 6z"/>
 <path d="M6381 6674 c-44 -56 -54 -139 -16 -139 26 0 45 41 52 110 6 62 -4 70 -36 29z"/>
 <path d="M5552 6429 c8 -23 13 -27 19 -17 15 24 10 48 -10 48 -18 0 -19 -3 -9 -31z"/>
 <path d="M4802 6409 c66 -88 214 -305 298 -438 52 -82 99 -150 104 -150 4 -1 5 6 2 15 -3 9 -9 137 -13 284 l-6 269 -51 6 c-28 4 -112 15 -186 26 -182 26 -177 26 -148 -12z"/>
 <path d="M4955 5094 c-554 -75 -1023 -394 -1235 -841 -22 -46 -40 -87 -40 -92 0 -13 103 -74 212 -126 513 -242 1227 -126 1699 278 125 107 239 253 318 407 28 54 51 100 51 103 0 3 -80 -21 -177 -53 -98 -32 -263 -87 -368 -121 -104 -34 -204 -64 -222 -67 -28 -4 -33 -1 -39 23 -4 14 -3 30 2 35 5 4 179 63 387 131 l377 123 -52 33 c-75 46 -236 111 -343 138 -177 45 -378 55 -570 29z"/>
 <path d="M6690 5104 c-178 -22 -339 -68 -485 -141 -164 -81 -180 -64 167 -177 167 -54 332 -108 368 -120 61 -20 65 -23 65 -51 0 -20 -5 -31 -17 -33 -10 -2 -111 27 -225 64 -449 145 -507 163 -511 160 -2 -2 11 -33 29 -67 137 -273 367 -497 657 -643 431 -216 929 -246 1331 -80 95 39 241 122 248 141 3 6 -14 51 -36 99 -117 249 -334 478 -589 621 -255 144 -531 222 -812 228 -85 2 -171 1 -190 -1z"/>
 <path d="M5974 4678 c-32 -72 -150 -239 -221 -313 -53 -55 -196 -184 -210 -190 -9 -4 -45 -183 -64 -310 -27 -187 -23 -444 9 -590 45 -201 133 -404 243 -558 59 -83 248 -277 270 -277 19 0 192 176 255 260 203 269 311 648 283 1000 -11 142 -39 312 -69 415 -15 52 -27 75 -47 89 -57 41 -218 204 -272 276 -31 42 -76 112 -101 157 -25 46 -48 83 -51 83 -3 0 -14 -19 -25 -42z"/>
 <path d="M6571 4020 c49 -234 61 -462 35 -645 -16 -108 -21 -99 113 -189 187 -126 379 -201 591 -231 135 -19 176 -19 184 0 3 8 13 65 22 127 29 196 7 425 -63 651 -29 98 -39 107 -114 107 -130 0 -478 107 -663 203 l-123 64 18 -87z"/>
 <path d="M5405 4086 c-150 -102 -583 -246 -743 -246 -76 0 -86 -9 -115 -107 -81 -262 -96 -512 -46 -742 l11 -54 90 7 c106 8 249 36 339 67 148 50 338 156 431 240 l38 34 -16 105 c-25 169 -9 440 42 683 6 30 -2 34 -31 13z"/>
 </g>
<g id="layer105" fill="#f2eef9" stroke="none">
 <path d="M0 6000 l0 -6000 6000 0 6000 0 0 6000 0 6000 -6000 0 -6000 0 0 -6000z m8787 2118 l26 -27 3 -258 c1 -158 6 -269 13 -286 6 -16 11 -33 11 -38 0 -16 -29 -9 -39 10 -10 18 -12 18 -58 -6 -68 -35 -122 -28 -174 23 -50 49 -69 107 -69 211 0 185 83 259 203 183 26 -16 50 -37 53 -45 15 -39 24 -6 24 90 0 103 0 105 -27 122 -34 23 -107 22 -152 0 -40 -20 -61 -22 -61 -4 0 31 75 57 158 54 52 -3 67 -7 89 -29z m-4350 -159 c34 -13 73 -48 73 -66 0 -20 -19 -16 -52 12 -34 29 -84 33 -126 11 -28 -14 -72 -81 -72 -109 0 -17 60 -39 158 -58 76 -14 102 -41 102 -104 0 -79 -68 -148 -145 -148 -56 0 -91 23 -125 84 -20 35 -25 62 -28 136 -4 81 -2 97 21 145 41 90 115 127 194 97z m1752 -15 c17 -14 31 -30 31 -35 0 -15 -36 -10 -50 6 -16 20 -56 19 -64 -1 -9 -23 -7 -164 3 -284 6 -58 11 -150 13 -205 3 -84 1 -100 -13 -103 -13 -2 -17 27 -30 210 -19 292 -19 377 4 411 23 35 65 36 106 1z m-2919 -128 c0 -129 2 -145 18 -150 13 -5 225 -25 265 -26 4 0 7 72 7 160 0 153 1 160 20 160 20 0 20 -7 20 -315 0 -308 0 -315 -20 -315 -19 0 -20 7 -20 134 l0 134 -37 6 c-21 3 -74 8 -118 11 -44 4 -92 9 -107 11 l-28 6 0 -156 c0 -132 -2 -156 -15 -156 -13 0 -15 42 -15 320 0 278 2 320 15 320 13 0 15 -23 15 -144z m2059 114 l42 -31 10 31 c6 16 18 30 26 30 12 0 13 -8 7 -42 -5 -24 -7 -106 -5 -183 3 -148 -3 -179 -40 -214 -29 -27 -96 -28 -148 -2 -47 25 -62 42 -51 61 8 12 11 12 27 -2 27 -23 79 -48 102 -48 11 0 32 10 46 23 22 18 27 34 32 85 l6 62 -72 0 c-40 0 -82 5 -94 11 -90 46 -112 149 -48 218 41 43 101 43 160 1z m1592 -196 c-2 -120 -5 -222 -7 -226 -3 -4 -12 -4 -21 -1 -14 6 -15 28 -9 221 3 118 9 219 12 224 3 5 11 7 17 5 9 -3 11 -63 8 -223z m686 74 c11 -166 18 -191 75 -247 43 -42 100 -41 132 2 20 27 21 42 21 210 0 128 3 181 12 184 15 5 21 -29 29 -172 8 -144 -5 -221 -42 -259 -52 -51 -125 -45 -184 15 l-38 39 -8 -35 c-5 -20 -13 -36 -19 -36 -10 1 -20 413 -11 438 15 37 24 -2 33 -139z m-679 -432 c4 -21 -14 -37 -35 -29 -14 5 -18 35 -6 47 12 12 38 1 41 -18z m-2865 -461 c205 -43 394 -150 572 -324 l74 -71 148 -20 c81 -11 178 -24 215 -30 37 -5 80 -10 96 -10 l29 0 6 103 c8 129 32 268 57 325 16 35 24 43 42 40 28 -4 28 -26 5 -112 -20 -72 -37 -195 -40 -296 l-2 -75 60 -6 c33 -4 83 -10 112 -14 l51 -7 -5 39 c-4 34 -2 43 18 57 13 9 34 16 46 16 20 0 23 4 17 28 -3 15 -10 39 -16 54 -12 33 -4 48 26 48 25 0 37 -21 54 -90 8 -33 11 -35 55 -38 l47 -3 -3 140 c-2 152 2 167 65 214 62 47 181 12 249 -73 l32 -40 28 49 c66 116 227 122 321 12 30 -35 41 -41 74 -41 107 0 173 -53 242 -193 24 -48 48 -87 54 -87 8 0 9 52 5 176 -4 112 -3 183 4 195 17 32 64 25 93 -14 15 -19 26 -36 26 -40 0 -15 124 -225 147 -249 28 -29 58 -37 66 -15 2 6 2 76 -1 153 -6 173 -2 194 38 194 35 0 46 -15 125 -167 67 -131 116 -193 150 -193 32 0 38 25 30 120 -9 104 0 154 37 196 26 29 36 34 75 34 60 0 103 -22 157 -80 27 -29 46 -43 46 -34 0 46 78 114 129 114 36 0 86 -26 123 -64 l36 -37 22 36 c56 91 173 86 262 -13 19 -22 55 -72 79 -112 45 -76 45 -102 3 -108 -14 -2 -28 14 -54 64 -42 80 -114 160 -153 170 -57 14 -94 -37 -114 -151 -7 -44 -11 -50 -33 -50 -20 0 -26 8 -40 51 -30 102 -91 158 -148 138 -57 -20 -68 -107 -26 -192 46 -93 132 -126 215 -83 37 20 44 20 57 8 37 -38 -35 -92 -123 -91 -63 0 -137 36 -175 84 -15 19 -49 71 -75 115 -51 87 -95 139 -137 161 -74 39 -100 4 -98 -133 3 -150 2 -152 -29 -184 -35 -35 -72 -37 -119 -9 -49 30 -74 63 -137 178 -31 56 -58 102 -59 102 -1 0 0 -49 2 -108 4 -120 -8 -163 -53 -184 -56 -25 -121 24 -191 145 -26 45 -58 100 -71 122 l-23 40 3 -156 c2 -142 0 -159 -17 -178 -25 -27 -68 -27 -101 2 -14 12 -49 67 -78 122 -46 89 -57 103 -97 123 -24 12 -55 22 -67 22 -22 0 -23 -4 -23 -62 0 -35 -5 -81 -11 -102 -27 -98 -135 -132 -174 -55 -35 68 -9 167 60 228 36 31 36 32 20 57 -23 35 -80 57 -129 51 -127 -17 -144 -207 -26 -282 72 -46 41 -94 -33 -53 -42 24 -69 57 -134 166 -42 72 -119 148 -159 158 -42 11 -77 -7 -98 -49 -16 -34 -17 -46 -7 -113 12 -84 14 -144 5 -169 -10 -25 -58 -45 -109 -45 -42 0 -45 -2 -45 -25 0 -37 -25 -92 -48 -104 -14 -7 -24 -6 -38 3 -10 7 -66 19 -124 25 -58 7 -120 14 -137 18 l-33 5 0 -203 c1 -224 21 -504 39 -522 17 -17 13 -55 -8 -66 -23 -13 -46 3 -60 41 -26 69 -373 600 -485 740 -48 61 -68 79 -96 85 -19 4 -138 7 -265 7 -180 0 -246 -4 -305 -17 -150 -34 -230 -96 -230 -179 0 -48 12 -72 57 -119 39 -41 41 -72 5 -77 -28 -4 -80 46 -107 103 -72 154 24 279 257 334 80 19 286 31 417 25 l126 -5 -50 46 c-227 210 -485 311 -730 284 -83 -9 -174 -41 -215 -75 -33 -28 -73 -29 -78 -2 -7 37 103 105 215 132 77 19 231 19 316 1z m1237 -1735 c210 -18 448 -92 611 -190 45 -28 86 -50 90 -50 4 0 38 19 75 42 217 131 475 200 754 201 215 0 351 -23 585 -99 377 -124 686 -365 876 -685 44 -74 119 -240 119 -263 0 -19 -110 -92 -225 -149 -176 -89 -370 -141 -571 -153 l-111 -7 24 -76 c63 -197 90 -416 73 -604 -11 -129 -42 -265 -61 -279 -20 -13 -197 0 -314 23 -129 26 -225 59 -351 118 -96 46 -275 158 -290 182 -4 6 -24 -40 -44 -102 -72 -219 -184 -409 -331 -564 -91 -95 -186 -175 -208 -175 -43 0 -263 216 -346 340 -72 107 -157 281 -194 398 -23 69 -37 99 -45 94 -6 -4 -57 -38 -113 -75 -225 -150 -449 -224 -733 -243 -85 -6 -97 -5 -111 12 -34 41 -61 216 -61 394 0 168 19 294 67 453 l32 107 -51 0 c-132 0 -330 37 -470 87 -131 47 -326 153 -369 201 -17 19 -17 22 18 108 138 346 439 642 817 803 182 78 398 135 572 150 131 12 158 12 286 1z"/>
 <path d="M8592 7914 c-42 -29 -56 -72 -55 -169 0 -103 16 -149 63 -189 50 -42 124 -32 167 24 8 9 12 52 13 114 0 97 0 99 -36 147 -51 70 -114 100 -152 73z"/>
 <path d="M4254 7702 c8 -72 44 -143 80 -160 68 -33 146 22 146 103 0 51 -8 58 -90 73 -30 6 -75 17 -99 25 l-44 16 7 -57z"/>
 <path d="M5212 7923 c-19 -7 -42 -58 -42 -91 0 -64 78 -111 161 -97 39 7 39 7 39 52 0 82 -93 162 -158 136z"/>
 <path d="M6381 6674 c-30 -38 -47 -102 -34 -122 27 -43 57 -4 68 91 8 64 -1 73 -34 31z"/>
 <path d="M5548 6439 c11 -28 26 -29 30 -1 3 17 -2 22 -17 22 -16 0 -19 -4 -13 -21z"/>
 <path d="M4803 6408 c42 -53 184 -261 286 -418 51 -80 97 -149 102 -154 7 -8 2 541 -5 551 -1 2 -380 53 -396 53 -8 0 -2 -13 13 -32z"/>
 <path d="M4992 5099 c-268 -30 -561 -137 -786 -286 -120 -80 -296 -252 -374 -365 -50 -73 -132 -227 -146 -275 -6 -18 2 -26 51 -56 226 -136 421 -193 693 -204 225 -8 381 15 606 91 404 135 710 390 883 733 22 46 41 85 41 88 0 3 -17 -2 -37 -9 -122 -47 -728 -237 -746 -234 -33 5 -36 54 -5 68 13 5 186 62 386 127 l362 117 -37 23 c-122 75 -309 144 -457 168 -117 20 -327 26 -434 14z"/>
 <path d="M6670 5099 c-168 -19 -321 -64 -470 -139 -149 -76 -148 -70 -28 -108 405 -129 625 -205 635 -219 16 -20 0 -53 -27 -53 -16 0 -136 38 -589 186 -74 24 -137 42 -139 39 -7 -7 86 -174 133 -240 208 -291 486 -477 885 -594 272 -79 595 -81 855 -6 136 40 395 168 395 197 0 23 -81 180 -135 262 -73 111 -211 256 -329 345 -318 242 -794 374 -1186 330z"/>
 <path d="M5994 4708 c-5 -7 -20 -33 -33 -58 -78 -146 -246 -344 -373 -440 -45 -33 -48 -39 -68 -122 -42 -179 -54 -286 -54 -498 -1 -179 2 -218 22 -308 47 -210 132 -409 240 -562 50 -71 253 -280 271 -280 21 0 191 172 258 260 71 94 168 282 208 403 98 297 102 627 11 986 -19 74 -29 95 -52 113 -16 12 -75 67 -131 121 -109 106 -188 208 -251 325 -28 52 -42 69 -48 60z"/>
 <path d="M6571 4023 c49 -234 63 -492 34 -658 l-14 -80 32 -28 c127 -113 355 -227 552 -276 78 -20 302 -48 310 -39 11 10 34 153 41 243 7 104 -6 267 -31 388 -16 77 -60 225 -74 246 -5 8 -42 17 -96 22 -226 23 -520 121 -730 245 l-42 24 18 -87z"/>
 <path d="M5375 4068 c-161 -100 -487 -205 -700 -227 -54 -5 -91 -14 -96 -22 -13 -21 -58 -167 -74 -246 -28 -133 -39 -303 -27 -420 6 -59 16 -132 23 -162 l11 -53 87 7 c204 16 399 73 564 165 122 67 242 160 241 186 -1 10 -6 57 -13 104 -21 163 -9 392 34 617 8 43 15 79 15 81 0 7 -20 -3 -65 -30z"/>
 </g>

</svg>